<svg width="258" height="246" viewBox="0 0 258 246" fill="none" xmlns="http://www.w3.org/2000/svg">
<path d="M257.099 145.812L257.084 209.591C257.084 211.84 255.881 213.917 253.931 215.037L203.404 244.163C199.191 246.591 193.924 243.536 193.962 238.673L194.32 182.004C194.335 179.734 193.125 177.634 191.153 176.506L134.41 144.049C132.438 142.921 131.228 140.822 131.243 138.551L131.646 74.5696C131.661 72.3062 130.458 70.2145 128.494 69.0791L78.1826 40.1101C73.9769 37.6898 73.9769 31.6315 78.1826 29.2112L127.478 0.839813C129.398 -0.265761 131.766 -0.280701 133.7 0.802462L191.205 32.9761C193.192 34.0892 194.425 36.1883 194.425 38.4667L194.41 102.194C194.41 104.435 195.605 106.504 197.54 107.632L253.961 140.374C255.904 141.502 257.099 143.571 257.091 145.812H257.099Z" fill="#7747FF"/>
<path d="M3.13744 147.508L53.2767 176.507C55.2339 177.635 56.4291 179.734 56.4141 181.997L56.0556 238.68C56.0257 243.536 61.2697 246.599 65.4679 244.171L115.801 215.045C117.744 213.925 118.939 211.848 118.939 209.599L118.954 145.88C118.954 143.601 117.729 141.502 115.749 140.389L58.4535 108.185C56.5262 107.102 54.1656 107.117 52.2533 108.223L3.13744 136.609C-1.04581 139.029 -1.04581 145.088 3.13744 147.508Z" fill="#7747FF"/>
</svg>
