<svg width="168" height="32" viewBox="0 0 168 32" fill="none" xmlns="http://www.w3.org/2000/svg"><path d="M13.333 22.102.1 29.503a3.422 3.422 0 0 1-.101-.71V14.701l13.333 7.401ZM1.824 31.025c.152.051.304.051.507.051h26.513c.152 0 .304 0 .507-.05a861.874 861.874 0 0 1-13.738-7.706L1.824 31.025Z" fill="#F26864"></path><path d="M31.076 28.793c0 .557-.152 1.014-.558 1.47-.304.405-.81.71-1.267.81-3.396-1.925-10.798-6.082-13.687-7.755l15.512-8.719v14.194Zm-12.014-13.13c0 .508-.102.913-.254 1.37a3.303 3.303 0 0 1-.76 1.165c-.304.304-.71.608-1.115.76a4.1 4.1 0 0 1-1.37.254c-.506 0-.912-.101-1.368-.253a2.447 2.447 0 0 1-1.115-.76c-.304-.356-.609-.761-.76-1.167a4.096 4.096 0 0 1-.254-1.368h6.996ZM15.513 0c.608 0 1.115.203 1.572.608l12.927 12.065-7.25 4.106c.305-.862.507-1.825.507-2.738 0-4.308-3.498-7.755-7.756-7.755-4.309 0-7.756 3.497-7.756 7.755 0 .964.152 1.876.507 2.738l-7.25-4.106L13.943.608A2.458 2.458 0 0 1 15.513 0Zm-3.092 12.622c.507 0 .862.355.862.862s-.355.862-.862.862-.862-.355-.862-.862c0-.456.355-.862.862-.862Zm6.286 0c.507 0 .862.355.862.862s-.355.862-.862.862-.862-.355-.862-.862c0-.456.355-.862.862-.862Z" fill="url(#paint0_linear_1847_21593)"></path><path d="M56.27 17.486c1.015-.507 1.826-1.166 2.383-2.028.558-.912.812-1.977.812-3.244 0-1.268-.254-2.332-.812-3.245-.557-.912-1.267-1.672-2.331-2.129-1.065-.456-2.18-.76-3.65-.76H45.27v18.857h3.954v-6.691h2.89l3.549 6.64h4.41l-4.056-7.35c.152 0 .203 0 .254-.05Zm-7.046-8.162h2.687c.76 0 1.42.102 1.876.304.507.203.912.558 1.115.964.254.405.355.963.355 1.571 0 .659-.101 1.115-.355 1.572-.253.405-.659.76-1.115.912-.507.203-1.115.304-1.876.304h-2.687V9.324ZM110.157 16.019c-.557-.355-1.115-.71-1.723-.913-.608-.203-1.115-.405-1.673-.557l-1.926-.558c-.355-.101-.761-.203-1.116-.355-.405-.152-.811-.304-1.166-.608a2.62 2.62 0 0 1-.912-.913 2.631 2.631 0 0 1-.355-1.267c0-.608.152-1.115.558-1.622a3.55 3.55 0 0 1 1.47-1.115 5.958 5.958 0 0 1 2.18-.406c1.115 0 2.078.254 2.889.76.811.558 1.217 1.217 1.369 2.13h2.18c-.051-.963-.304-1.825-.862-2.535a5.069 5.069 0 0 0-2.281-1.774 8.23 8.23 0 0 0-3.245-.659c-1.216 0-2.332.203-3.295.659-.963.405-1.723 1.064-2.332 1.825-.608.81-.862 1.723-.862 2.737 0 1.267.406 2.332 1.268 3.042.862.81 2.028 1.419 3.498 1.824l2.332.66c.659.152 1.267.354 1.825.659.608.253 1.013.608 1.419.963.355.355.558.912.558 1.52 0 .71-.203 1.268-.609 1.825-.405.507-.963.913-1.673 1.166a6.893 6.893 0 0 1-2.382.406c-.761 0-1.47-.102-2.079-.304-.659-.203-1.166-.609-1.622-1.014-.405-.507-.659-1.065-.71-1.774h-2.382c.05 1.013.355 1.926.963 2.737a5.533 5.533 0 0 0 2.332 1.825c.963.405 2.129.659 3.498.659 1.47 0 2.687-.254 3.7-.76 1.014-.508 1.775-1.116 2.332-1.978.558-.81.812-1.723.812-2.737 0-.862-.153-1.622-.558-2.281-.355-.355-.811-.811-1.42-1.267ZM69.805 17.793h4.056c0 .76-.152 1.42-.507 1.977-.304.608-.811 1.014-1.47 1.42-.66.304-1.42.506-2.332.506-1.014 0-1.876-.202-2.586-.71-.76-.506-1.267-1.165-1.723-2.078a9.171 9.171 0 0 1-.609-3.345c0-1.318.203-2.433.609-3.346.405-.912.963-1.622 1.723-2.078.76-.507 1.572-.71 2.535-.71.558 0 .963.05 1.42.203.405.101.81.304 1.115.558.304.253.659.557.861.861.203.304.406.76.558 1.166h4.056c-.102-.912-.406-1.774-.862-2.585-.406-.811-1.014-1.47-1.774-2.028-.71-.608-1.521-1.014-2.484-1.267A9.486 9.486 0 0 0 69.4 5.83c-1.217 0-2.434.203-3.498.66-1.065.405-1.977 1.064-2.788 1.875-.811.861-1.47 1.875-1.876 3.041-.406 1.166-.66 2.585-.66 4.106 0 1.977.356 3.7 1.116 5.17.76 1.47 1.774 2.586 3.093 3.346 1.368.811 2.889 1.166 4.663 1.166 1.572 0 2.991-.304 4.208-.963a7.503 7.503 0 0 0 2.89-2.737c.71-1.166 1.064-2.636 1.064-4.31v-2.382h-7.908v2.991h.101ZM83.39 17.08h8.06v-3.244h-8.06V9.324h8.72V6.03H79.436v18.858H92.16V21.59h-8.77V17.08ZM131.348 19.108c0 .862-.203 1.622-.609 2.18a3.084 3.084 0 0 1-1.419 1.267c-.558.254-1.115.406-1.673.406-.912 0-1.673-.304-2.18-.913-.608-.608-.862-1.47-.862-2.484v-8.82h-2.129v8.973c0 1.165.203 2.18.609 2.99.355.811.912 1.42 1.622 1.774.71.355 1.47.609 2.382.609 1.065 0 1.927-.254 2.637-.76a4.897 4.897 0 0 0 1.571-1.825h.152v2.433h2.129V10.744h-2.18v8.314h-.05v.05ZM167.189 14.043c-.558-1.065-1.268-1.927-2.281-2.586-.964-.608-2.079-.912-3.346-.912-1.268 0-2.434.304-3.397.912-.963.609-1.723 1.47-2.281 2.586-.558 1.064-.811 2.382-.811 3.852 0 1.47.253 2.738.811 3.802.558 1.065 1.267 1.926 2.281 2.535.963.608 2.079.912 3.397.912 1.318 0 2.433-.304 3.346-.912.963-.609 1.723-1.47 2.281-2.535.557-1.064.811-2.383.811-3.802 0-1.47-.254-2.788-.811-3.852Zm-1.825 6.488c-.304.811-.761 1.47-1.42 1.926-.659.507-1.419.76-2.433.76-.963 0-1.774-.253-2.433-.76-.659-.506-1.065-1.115-1.42-1.926-.304-.81-.405-1.673-.405-2.636 0-.963.152-1.825.405-2.636.304-.81.761-1.47 1.42-1.977.659-.507 1.47-.76 2.433-.76.963 0 1.774.253 2.433.76.659.507 1.065 1.166 1.42 1.977.304.811.405 1.724.405 2.636a5.163 5.163 0 0 1-.405 2.636ZM152.082 5.426c-.405 0-.811.152-1.064.405-.305.254-.406.66-.406 1.014 0 .406.152.76.406 1.014.304.253.709.405 1.064.405.406 0 .811-.152 1.065-.405.304-.253.507-.659.507-1.014 0-.405-.152-.76-.507-1.014-.254-.253-.609-.405-1.065-.405ZM145.846 13.025h-.152a4.485 4.485 0 0 0-.71-.913c-.253-.355-.709-.76-1.216-1.014-.558-.304-1.217-.507-2.18-.507-1.166 0-2.281.305-3.194.913-.912.608-1.622 1.47-2.129 2.535-.507 1.064-.76 2.382-.76 3.852 0 1.52.253 2.788.76 3.853.507 1.064 1.217 1.926 2.078 2.534.913.609 1.927.913 3.093.913.912 0 1.622-.152 2.18-.406.557-.304.963-.659 1.216-1.014.254-.355.558-.71.71-.963h.253v2.13h2.079V6.028h-2.129v6.996h.101Zm-.405 7.603c-.305.811-.761 1.47-1.42 1.876-.608.405-1.369.71-2.18.71-.912 0-1.673-.203-2.281-.71-.608-.507-1.065-1.115-1.419-1.926a7.721 7.721 0 0 1-.507-2.738c0-1.013.152-1.875.405-2.686.304-.811.761-1.47 1.42-1.876.608-.507 1.419-.71 2.332-.71.861 0 1.622.203 2.179.71.609.406 1.065 1.065 1.369 1.876.304.81.507 1.723.507 2.788 0 .912-.152 1.875-.405 2.686ZM153.146 10.744h-2.129v14.143h2.129V10.744ZM119.891 22.962c-.152 0-.354.051-.608.051-.304 0-.659-.05-.912-.152-.254-.101-.558-.304-.71-.608-.152-.304-.254-.76-.254-1.42v-8.262h2.991v-1.825h-2.991V7.35h-2.129v3.396h-2.129v1.825h2.129v8.87c0 .812.203 1.521.609 2.029.355.557.861.963 1.47 1.165a4.506 4.506 0 0 0 1.825.355c.405 0 .76-.05 1.014-.101.253-.05.507-.102.608-.152l-.406-1.926c-.202.1-.354.1-.507.151Z" fill="#353941"></path><defs><linearGradient id="paint0_linear_1847_21593" x1="18.603" y1="5.946" x2="14.72" y2="28.469" gradientUnits="userSpaceOnUse"><stop stop-color="#F04F49"></stop><stop offset="1" stop-color="#7747FF"></stop></linearGradient></defs></svg>
