<svg width="40" height="40" viewBox="0 0 40 40" fill="none" xmlns="http://www.w3.org/2000/svg" role="img" aria-label="RGE logo"><mask id="mask0_2000_88721" maskUnits="userSpaceOnUse" x="0" y="0" width="40" height="40" style="mask-type: luminance;"><path d="M40 0H0v40h40V0Z" fill="#fff"></path></mask><g mask="url(#mask0_2000_88721)"><path d="M17.149 28.43.146 37.97A2.948 2.948 0 0 1 0 37.053V18.811l17.149 9.62Z" fill="#F26864"></path><path d="M24.555 20.094a4.548 4.548 0 0 1-2.8 4.248 4.556 4.556 0 0 1-6.31-4.248h9.11ZM15.951 18.407a1.074 1.074 0 1 0 .001-2.148 1.074 1.074 0 0 0 0 2.148ZM24.047 18.407a1.074 1.074 0 1 0 .001-2.148 1.074 1.074 0 0 0 0 2.148Z" fill="#F04F49"></path><path d="M10.659 21.591a9.962 9.962 0 0 1-.655-3.562c0-5.517 4.475-9.988 9.996-9.988 5.52 0 9.995 4.471 9.995 9.988a9.957 9.957 0 0 1-.655 3.562l9.354-5.247L22.01.792a2.95 2.95 0 0 0-4.023 0L1.305 16.344l9.354 5.247Z" fill="#F04F49"></path><path d="M2.34 39.936c.2.042.404.063.609.063H37.05c.204 0 .407-.021.606-.063-4.422-2.477-13.936-7.805-17.682-9.893L2.34 39.936Z" fill="#F26864"></path><path d="M40.001 37.053V18.811L19.977 30.044c3.745 2.088 13.259 7.417 17.682 9.893a2.952 2.952 0 0 0 2.342-2.883Z" fill="#F04F49"></path></g></svg>
